<svg width="42" height="42" viewBox="0 0 42 42" fill="none" xmlns="http://www.w3.org/2000/svg"><path fill-rule="evenodd" clip-rule="evenodd" d="M12.8471 26C15.3675 26 17.7352 25.0276 19.6115 23.375C18.2228 21.6976 17.2012 19.6522 16.6849 17.3892C13.8225 19.0614 11.6753 22.1145 11.0679 25.8368C11.6491 25.9443 12.2437 26 12.8471 26ZM8.90858 27.3299C3.74001 25.5177 0 20.2348 0 14C0 6.26801 5.75182 0 12.8471 0C15.9424 0 18.782 1.19292 21 3.17988C23.218 1.19292 26.0576 0 29.1529 0C36.2482 0 42 6.26801 42 14C42 19.6378 38.942 24.4972 34.5349 26.716C34.5702 27.1388 34.5882 27.5671 34.5882 28C34.5882 35.732 28.8364 42 21.7412 42C14.6459 42 8.89412 35.732 8.89412 28C8.89412 27.7753 8.89898 27.5519 8.90858 27.3299ZM9.13769 25.273C5.03937 23.6156 2 19.2882 2 14C2 7.2073 7.01473 2 12.8471 2C15.3675 2 17.7352 2.97244 19.6115 4.62504C17.5568 7.10683 16.3059 10.3942 16.3059 14C16.3059 14.4329 16.3239 14.8612 16.3592 15.284C12.6816 17.1355 9.94337 20.826 9.13769 25.273ZM32.579 27.4967C32.5851 27.6634 32.5882 27.8312 32.5882 28C32.5882 34.7927 27.5735 40 21.7412 40C15.9088 40 10.8941 34.7927 10.8941 28C10.8941 27.9464 10.8944 27.8929 10.8951 27.8394C11.5316 27.9452 12.1834 28 12.8471 28C15.9424 28 18.782 26.8071 21 24.8201C23.218 26.8071 26.0576 28 29.1529 28C30.3394 28 31.4883 27.8247 32.579 27.4967ZM34.2092 24.6108C37.6092 22.6246 40 18.6902 40 14C40 7.2073 34.9853 2 29.1529 2C26.6325 2 24.2648 2.97244 22.3885 4.62504C24.4432 7.10683 25.6941 10.3942 25.6941 14C25.6941 14.2247 25.6893 14.4481 25.6797 14.6702C29.8794 16.1426 33.1359 19.9066 34.2092 24.6108ZM25.4505 16.727C28.8717 18.1106 31.5549 21.3546 32.3482 25.465C31.3314 25.8135 30.2568 26 29.1529 26C26.6325 26 24.2648 25.0276 22.3885 23.375C23.9115 21.5354 24.9929 19.2533 25.4505 16.727ZM23.6932 14.1606C23.6938 14.1071 23.6941 14.0536 23.6941 14C23.6941 10.9247 22.6663 8.17437 21 6.08509C19.3338 8.17437 18.3059 10.9247 18.3059 14C18.3059 14.1688 18.309 14.3366 18.3151 14.5033C19.4058 14.1753 20.5547 14 21.7412 14C22.4048 14 23.0567 14.0548 23.6932 14.1606ZM18.5459 16.535C19.5627 16.1865 20.6373 16 21.7412 16C22.3445 16 22.9391 16.0557 23.5203 16.1632C23.1613 18.3632 22.2645 20.3294 21 21.9149C19.8072 20.4193 18.9415 18.5849 18.5459 16.535Z" fill="currentColor"></path></svg>