<svg width="42" height="42" viewBox="0 0 42 42" fill="none" xmlns="http://www.w3.org/2000/svg"><path fill-rule="evenodd" clip-rule="evenodd" d="M33.6534 4.70312H3.15845V10.5423H33.6534V4.70312ZM3.15845 2.70312H1.15845V4.70312V10.5423V12.5423H3.15845H33.6534H35.6534V10.5423V4.70312V2.70312H33.6534H3.15845ZM33.6534 17.8219H3.15845V23.6611H33.6534V17.8219ZM3.15845 15.8219H1.15845V17.8219V23.6611V25.6611H3.15845H33.6534H35.6534V23.6611V17.8219V15.8219H33.6534H3.15845ZM3.15845 30.9409H22.0779V36.7801H3.15845V30.9409ZM1.15845 28.9409H3.15845H22.0779H24.0779V30.9409V36.7801V38.7801H22.0779H3.15845H1.15845V36.7801V30.9409V28.9409Z" fill="currentColor"></path></svg>