<svg width="42" height="42" viewBox="0 0 42 42" fill="none" xmlns="http://www.w3.org/2000/svg"><path fill-rule="evenodd" clip-rule="evenodd" d="M22.9882 12.5391L30.1712 3.21054L38.6879 10.9983L31.505 20.3268L22.9882 12.5391ZM20.2921 12.7741L21.5123 11.1895L28.6952 1.86091L29.9154 0.276245L31.3914 1.62588L39.9081 9.41359L41.3841 10.7632L40.1639 12.3479L32.9809 21.6765L31.8912 23.0917H36.3235H38.3235V25.0917V37.4065V39.4065H36.3235H25.3523H23.3523V37.4065V25.0917V23.0917H25.3523H31.5754L30.2848 21.9115L21.768 14.1238L20.2921 12.7741ZM7.02945 5.61125H18.0007V17.9261H7.02945V5.61125ZM5.02945 3.61125H7.02945H18.0007H20.0007V5.61125V17.9261V19.9261H18.0007H7.02945H5.02945V17.9261V5.61125V3.61125ZM18.0007 31.9209V30.5773C18.0007 27.5477 15.5447 25.0917 12.5151 25.0917C9.48545 25.0917 7.02945 27.5477 7.02945 30.5773V31.9209C7.02945 34.9505 9.48545 37.4065 12.5151 37.4065C15.5447 37.4065 18.0007 34.9505 18.0007 31.9209ZM12.5151 23.0917C8.38088 23.0917 5.02945 26.4431 5.02945 30.5773V31.9209C5.02945 36.0551 8.38088 39.4065 12.5151 39.4065C16.6493 39.4065 20.0007 36.0551 20.0007 31.9209V30.5773C20.0007 26.4431 16.6493 23.0917 12.5151 23.0917ZM25.3523 25.0917H36.3235V37.4065H25.3523V25.0917Z" fill="white"></path></svg>